{"title":"OGN.Summer.2013.Quarter-Finals .CJ.Frost.vs.NaJin.Shield-Aug.9-1","uid":8829309,"size":4718628914,"categoryP":"video","categoryS":"hd___tv_shows","magnet":"?xt=urn:btih:9bd119d7434e6850456e0e2e9f573539f8ddcacf&amp;dn=OGN.Summer.2013.Quarter-Finals+.CJ.Frost.vs.NaJin.Shield-Aug.9-1&amp;tr=udp%3A%2F%2Ftracker.openbittorrent.com%3A80&amp;tr=udp%3A%2F%2Fopen.demonii.com%3A1337&amp;tr=udp%3A%2F%2Ftracker.coppersurfer.tk%3A6969&amp;tr=udp%3A%2F%2Fexodus.desync.com%3A6969","seeders":0,"leechers":1,"uploader":null,"files":-1,"time":1376924090,"description":"Video\nFormat                                   : AVC\nFormat/Info                              : Advanced Video Codec\nFormat profile                           : &lt;a class=&quot;__cf_email__&quot; href=&quot;/cdn-cgi/l/email-protection&quot; data-cfemail=&quot;4a072b23240a067e647a&quot;&gt;[email&amp;#160;protected]&lt;/a&gt;&lt;script cf-hash='f9e31' type=&quot;text/javascript&quot;&gt;\n/* &lt;![CDATA[ */!function(){try{var t=&quot;currentScript&quot;in document?document.currentScript:function(){for(var t=document.getElementsByTagName(&quot;script&quot;),e=t.length;e--;)if(t[e].getAttribute(&quot;cf-hash&quot;))return t[e]}();if(t&amp;&amp;t.previousSibling){var e,r,n,i,c=t.previousSibling,a=c.getAttribute(&quot;data-cfemail&quot;);if(a){for(e=&quot;&quot;,r=parseInt(a.substr(0,2),16),n=2;a.length-n;n+=2)i=parseInt(a.substr(n,2),16)^r,e+=String.fromCharCode(i);e=document.createTextNode(e),c.parentNode.replaceChild(e,c)}}}catch(u){}}();/* ]]&gt; */&lt;/script&gt;\nFormat settings, CABAC                   : Yes\nFormat settings, ReFrames                : 2 frames\nCodec ID                                 : 7\nDuration                                 : 30mn 1s\nBit rate                                 : 2 652 Kbps\nWidth                                    : 1 920 pixels\nHeight                                   : 1 080 pixels\nDisplay aspect ratio                     : 16:9\nFrame rate mode                          : Constant\nFrame rate                               : 29.970 fps\nStandard                                 : NTSC\nColor space                              : YUV\nChroma subsampling                       : 4:2:0\nBit depth                                : 8 bits\nScan type                                : Progressive\nBits/(Pixel*Frame)                       : 0.043\nStream size                              : 584 MiB (95%)\n\nAudio\nFormat                                   : AAC\nFormat/Info                              : Advanced Audio Codec\nFormat profile                           : HE-AAC / LC\nCodec ID                                 : 10\nDuration                                 : 30mn 1s\nBit rate                                 : 124 Kbps\nChannel(s)                               : 2 channels\nChannel positions                        : Front: L R\nSampling rate                            : 44.1 KHz / 22.05 KHz\nCompression mode                         : Lossy\nDelay relative to video                  : 92ms\nStream size                              : 27.7 MiB (5%)","torrent":{"xt":"urn:btih:9bd119d7434e6850456e0e2e9f573539f8ddcacf","amp;dn":"OGN.Summer.2013.Quarter-Finals+.CJ.Frost.vs.NaJin.Shield-Aug.9-1","amp;tr":["udp%3A%2F%2Ftracker.openbittorrent.com%3A80","udp%3A%2F%2Fopen.demonii.com%3A1337","udp%3A%2F%2Ftracker.coppersurfer.tk%3A6969","udp%3A%2F%2Fexodus.desync.com%3A6969"],"infoHash":"9bd119d7434e6850456e0e2e9f573539f8ddcacf","infoHashBuffer":{"type":"Buffer","data":[155,209,25,215,67,78,104,80,69,110,14,46,159,87,53,57,248,221,202,207]},"announce":[],"urlList":[]}}